<svg width="151" height="27" viewBox="0 0 151 27" fill="none" xmlns="http://www.w3.org/2000/svg">
<g id="Ratings">
<path id="Star 5" d="M137.626 0L140.628 9.32827H150.345L142.484 15.0935L145.487 24.4217L137.626 18.6565L129.765 24.4217L132.767 15.0935L124.906 9.32827H134.623L137.626 0Z" fill="#EEBA00"/>
<path id="Star 4" d="M106.563 0L109.566 9.32827H119.283L111.421 15.0935L114.424 24.4217L106.563 18.6565L98.7016 24.4217L101.704 15.0935L93.8432 9.32827H103.56L106.563 0Z" fill="#EEBA00"/>
<path id="Star 1" d="M13.3743 0L16.377 9.32827H26.094L18.2328 15.0935L21.2355 24.4217L13.3743 18.6565L5.51308 24.4217L8.51579 15.0935L0.654584 9.32827H10.3716L13.3743 0Z" fill="#EEBA00"/>
<path id="Star 2" d="M44.4372 0L47.4399 9.32827H57.1569L49.2956 15.0935L52.2984 24.4217L44.4372 18.6565L36.5759 24.4217L39.5787 15.0935L31.7175 9.32827H41.4344L44.4372 0Z" fill="#EEBA00"/>
<path id="Star 3" d="M75.5 0L78.5027 9.32827H88.2197L80.3585 15.0935L83.3612 24.4217L75.5 18.6565L67.6388 24.4217L70.6415 15.0935L62.7803 9.32827H72.4973L75.5 0Z" fill="#EEBA00"/>
</g>
</svg>
